<svg xmlns="http://www.w3.org/2000/svg" viewBox="0 0 512 512" width="512" height="512">
  <defs>
    <linearGradient id="bg" x1="0%" y1="0%" x2="100%" y2="100%">
      <stop offset="0%" stop-color="#415F91"/>
      <stop offset="100%" stop-color="#284777"/>
    </linearGradient>
  </defs>

  <rect x="16" y="16" width="480" height="480" rx="112" fill="url(#bg)"/>

  <g transform="translate(256,256)" stroke="#FFFFFF" stroke-width="18" stroke-linecap="round" fill="none">
    <!-- 分支0° -->
    <line x1="0" y1="0" x2="0" y2="-144"/>
    <line x1="0" y1="-84" x2="-26" y2="-110"/>
    <line x1="0" y1="-84" x2="26" y2="-110"/>

    <!-- 分支60° -->
    <g transform="rotate(60)">
      <line x1="0" y1="0" x2="0" y2="-144"/>
      <line x1="0" y1="-84" x2="-26" y2="-110"/>
      <line x1="0" y1="-84" x2="26" y2="-110"/>
    </g>

    <!-- 分支120° -->
    <g transform="rotate(120)">
      <line x1="0" y1="0" x2="0" y2="-144"/>
      <line x1="0" y1="-84" x2="-26" y2="-110"/>
      <line x1="0" y1="-84" x2="26" y2="-110"/>
    </g>

    <!-- 分支180° -->
    <g transform="rotate(180)">
      <line x1="0" y1="0" x2="0" y2="-144"/>
      <line x1="0" y1="-84" x2="-26" y2="-110"/>
      <line x1="0" y1="-84" x2="26" y2="-110"/>
    </g>

    <!-- 分支240° -->
    <g transform="rotate(240)">
      <line x1="0" y1="0" x2="0" y2="-144"/>
      <line x1="0" y1="-84" x2="-26" y2="-110"/>
      <line x1="0" y1="-84" x2="26" y2="-110"/>
    </g>

    <!-- 分支300° -->
    <g transform="rotate(300)">
      <line x1="0" y1="0" x2="0" y2="-144"/>
      <line x1="0" y1="-84" x2="-26" y2="-110"/>
      <line x1="0" y1="-84" x2="26" y2="-110"/>
    </g>
  </g>
</svg>
